;PTH Drill file created by EasyEDA 
M48
INCH,LZ,00.0000
;Holesize 1 = 0.012 INCH
T01C0.012
;Holesize 2 = 0.028 INCH
T02C0.028
;Holesize 3 = 0.035 INCH
T03C0.035
;Holesize 4 = 0.035 INCH
T04C0.035
;Holesize 5 = 0.043 INCH
T05C0.043
%
G05
G90
T01
X+008272Y+015017
X+011613Y+011403
X+018169Y+002007
X+018100Y+015363
X+006381Y+002000
X+007225Y+003867
T02
X+001500Y+012500
X+002500Y+012500
X+003500Y+012500
X+004500Y+012500
X+005500Y+012500
X+006500Y+012500
X+007500Y+012500
X+008500Y+012500
X+008500Y+015500
X+007500Y+015500
X+006500Y+015500
X+005500Y+015500
X+004500Y+015500
X+003500Y+015500
X+002500Y+015500
X+001500Y+015500
X+001600Y+007900
X+002600Y+007900
X+003600Y+007900
X+004600Y+007900
X+005600Y+007900
X+006600Y+007900
X+007600Y+007900
X+008600Y+007900
X+008600Y+010900
X+007600Y+010900
X+006600Y+010900
X+005600Y+010900
X+004600Y+010900
X+003600Y+010900
X+002600Y+010900
X+001600Y+010900
X+011600Y+007900
X+012600Y+007900
X+013600Y+007900
X+014600Y+007900
X+015600Y+007900
X+016600Y+007900
X+017600Y+007900
X+018600Y+007900
X+018600Y+010900
X+017600Y+010900
X+016600Y+010900
X+015600Y+010900
X+014600Y+010900
X+013600Y+010900
X+012600Y+010900
X+011600Y+010900
X+011600Y+003500
X+012600Y+003500
X+013600Y+003500
X+014600Y+003500
X+015600Y+003500
X+016600Y+003500
X+017600Y+003500
X+018600Y+003500
X+018600Y+006500
X+017600Y+006500
X+016600Y+006500
X+015600Y+006500
X+014600Y+006500
X+013600Y+006500
X+012600Y+006500
X+011600Y+006500
X+011600Y+012500
X+012600Y+012500
X+013600Y+012500
X+014600Y+012500
X+015600Y+012500
X+016600Y+012500
X+017600Y+012500
X+018600Y+012500
X+018600Y+015500
X+017600Y+015500
X+016600Y+015500
X+015600Y+015500
X+014600Y+015500
X+013600Y+015500
X+012600Y+015500
X+011600Y+015500
X+001600Y+003400
X+002600Y+003400
X+003600Y+003400
X+004600Y+003400
X+005600Y+003400
X+006600Y+003400
X+007600Y+003400
X+008600Y+003400
X+008600Y+006400
X+007600Y+006400
X+006600Y+006400
X+005600Y+006400
X+004600Y+006400
X+003600Y+006400
X+002600Y+006400
X+001600Y+006400
T03
X+010600Y+017500
X+009600Y+017500
X+008600Y+017500
X+007600Y+017500
X+006600Y+017500
X+005600Y+017500
X+004600Y+017500
X+003600Y+017500
X+002600Y+017500
X+001600Y+017500
X+020800Y+017500
X+019800Y+017500
X+018800Y+017500
X+017800Y+017500
X+016800Y+017500
X+015800Y+017500
X+014800Y+017500
X+013800Y+017500
X+012800Y+017500
X+011800Y+017500
X+010600Y+001400
X+009600Y+001400
X+008600Y+001400
X+007600Y+001400
X+006600Y+001400
X+005600Y+001400
X+004600Y+001400
X+003600Y+001400
X+002600Y+001400
X+001600Y+001400
X+020900Y+001400
X+019900Y+001400
X+018900Y+001400
X+017900Y+001400
X+016900Y+001400
X+015900Y+001400
X+014900Y+001400
X+013900Y+001400
X+012900Y+001400
X+011900Y+001400
X+025600Y+003000
X+021400Y+003000
X+022400Y+003000
X+023400Y+003000
X+024400Y+003000
X+021700Y+015600
X+022700Y+015600
X+023700Y+015600
X+024700Y+015600
X+032000Y+017400
X+031000Y+017400
X+030000Y+017400
X+029000Y+017400
X+028000Y+017400
T04
X+021600Y+013300
X+024600Y+013300
X+021600Y+011400
X+024600Y+011400
X+021600Y+009500
X+024600Y+009500
X+021600Y+007700
X+024600Y+007700
X+028000Y+009000
X+032000Y+009000
X+028000Y+007000
X+032000Y+007000
X+028000Y+005000
X+032000Y+005000
X+028000Y+003000
X+032000Y+003000
T05
X+021500Y+005200
X+022500Y+005200
X+023500Y+005200
X+024500Y+005200
X+025500Y+005200
M30
