G04 ---------------------------- Layer name :BOTTOM SOLDER LAYER*
G04 EasyEDA v5.8.19, Tue, 23 Oct 2018 04:56:52 GMT*
G04 ff24bd7eb87e4772a3a352ded0ffbd4c*
G04 Gerber Generator version 0.2*
G04 Scale: 100 percent, Rotated: No, Reflected: No *
G04 Dimensions in inches *
G04 leading zeros omitted , absolute positions ,2 integer and 4 decimal *
%FSLAX24Y24*%
%MOIN*%
G90*
G70D02*

%ADD24R,0.063000X0.063000*%
%ADD25C,0.063000*%
%ADD26C,0.070000*%
%ADD27R,0.070000X0.070000*%
%ADD28C,0.082000*%
%ADD29R,0.074929X0.074929*%
%ADD30C,0.074929*%

%LPD*%
G54D24*
G01X1500Y12500D03*
G54D25*
G01X2500Y12500D03*
G01X3500Y12500D03*
G01X4500Y12500D03*
G01X5500Y12500D03*
G01X6500Y12500D03*
G01X7500Y12500D03*
G01X8500Y12500D03*
G01X8500Y15500D03*
G01X7500Y15500D03*
G01X6500Y15500D03*
G01X5500Y15500D03*
G01X4500Y15500D03*
G01X3500Y15500D03*
G01X2500Y15500D03*
G01X1500Y15500D03*
G54D24*
G01X1600Y7900D03*
G54D25*
G01X2600Y7900D03*
G01X3600Y7900D03*
G01X4600Y7900D03*
G01X5600Y7900D03*
G01X6600Y7900D03*
G01X7600Y7900D03*
G01X8600Y7900D03*
G01X8600Y10900D03*
G01X7600Y10900D03*
G01X6600Y10900D03*
G01X5600Y10900D03*
G01X4600Y10900D03*
G01X3600Y10900D03*
G01X2600Y10900D03*
G01X1600Y10900D03*
G54D24*
G01X11600Y7900D03*
G54D25*
G01X12600Y7900D03*
G01X13600Y7900D03*
G01X14600Y7900D03*
G01X15600Y7900D03*
G01X16600Y7900D03*
G01X17600Y7900D03*
G01X18600Y7900D03*
G01X18600Y10900D03*
G01X17600Y10900D03*
G01X16600Y10900D03*
G01X15600Y10900D03*
G01X14600Y10900D03*
G01X13600Y10900D03*
G01X12600Y10900D03*
G01X11600Y10900D03*
G54D24*
G01X11600Y3500D03*
G54D25*
G01X12600Y3500D03*
G01X13600Y3500D03*
G01X14600Y3500D03*
G01X15600Y3500D03*
G01X16600Y3500D03*
G01X17600Y3500D03*
G01X18600Y3500D03*
G01X18600Y6500D03*
G01X17600Y6500D03*
G01X16600Y6500D03*
G01X15600Y6500D03*
G01X14600Y6500D03*
G01X13600Y6500D03*
G01X12600Y6500D03*
G01X11600Y6500D03*
G54D24*
G01X11600Y12500D03*
G54D25*
G01X12600Y12500D03*
G01X13600Y12500D03*
G01X14600Y12500D03*
G01X15600Y12500D03*
G01X16600Y12500D03*
G01X17600Y12500D03*
G01X18600Y12500D03*
G01X18600Y15500D03*
G01X17600Y15500D03*
G01X16600Y15500D03*
G01X15600Y15500D03*
G01X14600Y15500D03*
G01X13600Y15500D03*
G01X12600Y15500D03*
G01X11600Y15500D03*
G54D24*
G01X1600Y3400D03*
G54D25*
G01X2600Y3400D03*
G01X3600Y3400D03*
G01X4600Y3400D03*
G01X5600Y3400D03*
G01X6600Y3400D03*
G01X7600Y3400D03*
G01X8600Y3400D03*
G01X8600Y6400D03*
G01X7600Y6400D03*
G01X6600Y6400D03*
G01X5600Y6400D03*
G01X4600Y6400D03*
G01X3600Y6400D03*
G01X2600Y6400D03*
G01X1600Y6400D03*
G54D26*
G01X10600Y17500D03*
G01X9600Y17500D03*
G01X8600Y17500D03*
G01X7600Y17500D03*
G01X6600Y17500D03*
G01X5600Y17500D03*
G01X4600Y17500D03*
G01X3600Y17500D03*
G01X2600Y17500D03*
G54D27*
G01X1600Y17500D03*
G54D26*
G01X20800Y17500D03*
G01X19800Y17500D03*
G01X18800Y17500D03*
G01X17800Y17500D03*
G01X16800Y17500D03*
G01X15800Y17500D03*
G01X14800Y17500D03*
G01X13800Y17500D03*
G01X12800Y17500D03*
G54D27*
G01X11800Y17500D03*
G54D26*
G01X10600Y1400D03*
G01X9600Y1400D03*
G01X8600Y1400D03*
G01X7600Y1400D03*
G01X6600Y1400D03*
G01X5600Y1400D03*
G01X4600Y1400D03*
G01X3600Y1400D03*
G01X2600Y1400D03*
G54D27*
G01X1600Y1400D03*
G54D26*
G01X20900Y1400D03*
G01X19900Y1400D03*
G01X18900Y1400D03*
G01X17900Y1400D03*
G01X16900Y1400D03*
G01X15900Y1400D03*
G01X14900Y1400D03*
G01X13900Y1400D03*
G01X12900Y1400D03*
G54D27*
G01X11900Y1400D03*
G01X25600Y3000D03*
G54D28*
G01X21600Y13300D03*
G01X24600Y13300D03*
G01X21600Y11400D03*
G01X24600Y11400D03*
G01X21600Y9500D03*
G01X24600Y9500D03*
G01X21600Y7700D03*
G01X24600Y7700D03*
G01X28000Y9000D03*
G01X32000Y9000D03*
G01X28000Y7000D03*
G01X32000Y7000D03*
G01X28000Y5000D03*
G01X32000Y5000D03*
G01X28000Y3000D03*
G01X32000Y3000D03*
G54D29*
G01X21500Y5200D03*
G54D30*
G01X22500Y5200D03*
G01X23500Y5200D03*
G01X24500Y5200D03*
G01X25500Y5200D03*
G54D27*
G01X21400Y3000D03*
G54D26*
G01X22400Y3000D03*
G01X23400Y3000D03*
G01X24400Y3000D03*
G54D27*
G01X21700Y15600D03*
G54D26*
G01X22700Y15600D03*
G01X23700Y15600D03*
G01X24700Y15600D03*
G01X32000Y17400D03*
G01X31000Y17400D03*
G01X30000Y17400D03*
G01X29000Y17400D03*
G54D27*
G01X28000Y17400D03*
M00*
M02*
